<svg width="293" height="449" viewBox="0 0 293 449" fill="none" xmlns="http://www.w3.org/2000/svg">
<path d="M146.65 0C65.9999 0 0.419922 65.59 0.419922 146.22V302.78C0.419922 383.4 65.9999 449 146.65 449C227.3 449 292.87 383.4 292.87 302.78V146.22C292.87 65.59 227.27 0 146.65 0ZM153 333.29V312.09C195.76 313.53 236.401 331.054 266.8 361.16C263.601 367.689 259.875 373.946 255.66 379.87C228.775 351.618 191.966 334.916 153 333.29ZM37.6599 379.87C33.4444 373.946 29.7188 367.689 26.5199 361.16C56.9192 331.054 97.5603 313.53 140.32 312.09V333.29C101.354 334.916 64.5447 351.618 37.6599 379.87ZM48.6599 302.78V258.16C51.5899 260.04 54.6099 261.8 57.7399 263.4C73.3924 271.467 90.7508 275.664 108.36 275.64C119.198 275.637 129.978 274.053 140.36 270.94V299.45C108.934 300.414 78.291 309.492 51.4099 325.8C49.5789 318.263 48.6491 310.536 48.6399 302.78H48.6599ZM96.8999 47.43L85.4199 27.56C95.4884 22.3393 106.186 18.4339 117.25 15.94L121.25 38.55C112.81 40.5357 104.636 43.5165 96.8999 47.43ZM146.65 48.21C172.631 48.2418 197.54 58.5769 215.911 76.9486C234.283 95.3203 244.618 120.229 244.65 146.21V177.1C222.257 177.815 200.605 185.289 182.54 198.54C189.465 177.851 190.154 155.582 184.519 134.505C178.884 113.428 167.176 94.4731 150.85 80L146.65 76.27L142.45 80C126.12 94.47 114.406 113.424 108.768 134.501C103.13 155.579 103.815 177.849 110.74 198.54C92.6763 185.294 71.028 177.824 48.6399 177.11V146.22C48.669 120.235 59.0044 95.3228 77.3785 76.9486C95.7527 58.5745 120.665 48.2391 146.65 48.21ZM172 38.55L176 15.94C187.061 18.4372 197.758 22.3389 207.83 27.55L196.38 47.43C188.634 43.5134 180.45 40.5325 172 38.55ZM44.9999 189.64C60.6089 189.617 75.9958 193.338 89.8699 200.49C110.315 210.977 126.47 228.257 135.56 249.36L23.5399 192C30.5854 190.431 37.7818 189.639 44.9999 189.64ZM153 226.24V100.37C167.664 118.064 175.689 140.324 175.689 163.305C175.689 186.286 167.664 208.546 153 226.24ZM140.35 226.24C125.686 208.546 117.661 186.286 117.661 163.305C117.661 140.324 125.686 118.064 140.35 100.37V226.24ZM203.41 200.49C223.846 189.977 247.325 186.973 269.75 192L157.69 249.36C166.777 228.255 182.933 210.974 203.38 200.49H203.41ZM257.33 177.39V152.55H280.26V181.7C272.779 179.462 265.083 178.018 257.3 177.39H257.33ZM257.14 139.9C256.653 131.249 255.143 122.686 252.64 114.39L274.23 106.52C277.602 117.351 279.575 128.569 280.1 139.9H257.14ZM248.31 102.51C244.869 94.5504 240.506 87.0222 235.31 80.08L252.87 65.35C259.76 74.354 265.472 84.2001 269.87 94.65L248.31 102.51ZM45.0399 102.51L23.4599 94.66C27.8635 84.21 33.5759 74.3613 40.4599 65.35L57.9999 80.09C52.8035 87.0285 48.4403 94.5534 44.9999 102.51H45.0399ZM40.7099 114.39C38.2082 122.689 36.6977 131.256 36.2099 139.91H13.2299C13.7481 128.583 15.7141 117.368 19.0799 106.54L40.7099 114.39ZM35.9999 152.56V177.39C28.2299 178.019 20.5476 179.464 13.0799 181.7V152.56H35.9999ZM129.85 260.61C122.792 262.189 115.582 262.987 108.35 262.99C92.7442 263.011 77.3609 259.291 63.4899 252.14C43.0434 241.66 26.8874 224.383 17.7999 203.28L129.85 260.61ZM241.92 325.8C215.048 309.497 184.416 300.42 153 299.45V270.94C163.381 274.054 174.161 275.638 185 275.64C202.612 275.666 219.974 271.468 235.63 263.4C238.76 261.8 241.78 260.03 244.72 258.16V302.78C244.699 310.537 243.76 318.264 241.92 325.8ZM229.81 252.14C215.937 259.295 200.55 263.02 184.94 263C177.712 262.996 170.505 262.201 163.45 260.63L275.5 203.29C266.409 224.388 250.254 241.661 229.81 252.14ZM244.73 55.66L227.15 70.42C221.211 64.1175 214.56 58.5266 207.33 53.76L218.79 33.89C228.32 40.024 237.036 47.3387 244.73 55.66ZM163.58 13.75L159.58 36.35C155.286 35.8372 150.965 35.5768 146.64 35.57C142.295 35.5806 137.955 35.841 133.64 36.35L129.64 13.75C140.885 12.27 152.275 12.27 163.52 13.75H163.58ZM74.4899 33.9L85.9999 53.77C78.7681 58.534 72.1165 64.1251 66.1799 70.43L48.5499 55.67C56.2464 47.3511 64.9619 40.0366 74.4899 33.9ZM13.0699 221.63C19.2132 231.844 26.9548 241.007 35.9999 248.77V302.77C35.993 313.049 37.4235 323.278 40.2499 333.16C33.5786 337.905 27.2311 343.09 21.2499 348.68C15.8578 333.975 13.1055 318.433 13.1199 302.77L13.0699 221.63ZM153 379.8C179.57 381.374 204.523 393.086 222.71 412.52C216.725 416.692 210.411 420.371 203.83 423.52C190.002 410.367 172.035 402.425 153 401.05V379.8ZM140.35 401.05C121.321 402.425 103.358 410.356 89.5199 423.49C82.9389 420.341 76.6248 416.662 70.6399 412.49C88.8284 393.058 113.78 381.346 140.35 379.77V401.05ZM102.61 428.85C115.126 418.863 130.663 413.424 146.675 413.424C162.687 413.424 178.224 418.863 190.74 428.85C162.215 438.857 131.134 438.857 102.61 428.85ZM232.79 404.78C221.836 392.856 208.526 383.336 193.701 376.824C178.877 370.312 162.862 366.949 146.67 366.949C130.478 366.949 114.463 370.312 99.6385 376.824C84.8141 383.336 71.5035 392.856 60.5499 404.78C55.1796 400.251 50.1711 395.309 45.5699 390C58.4595 376.062 74.0926 364.94 91.4868 357.334C108.881 349.728 127.66 345.801 146.645 345.801C165.629 345.801 184.409 349.728 201.803 357.334C219.197 364.94 234.83 376.062 247.72 390C243.127 395.31 238.125 400.252 232.76 404.78H232.79ZM272.13 348.69C266.13 343.101 259.766 337.916 253.08 333.17C255.905 323.287 257.335 313.058 257.33 302.78V248.78C266.372 241.014 274.113 231.852 280.26 221.64V302.79C280.26 318.451 277.497 333.989 272.1 348.69H272.13Z" fill="#7D806A"/>
</svg>
